<svg data-v-423bf9ae="" xmlns="http://www.w3.org/2000/svg" viewBox="0 0 980.7527737737508 220" class="iconAboveSlogan"><!----><!----><!----><g data-v-423bf9ae="" id="3f117805-cf13-4739-a0fe-80fe108fedc8" fill="white" transform="matrix(5.376344159530915,0,0,5.376344159530915,-6.935490680843202,87.94623923228187)"><path d="M2.34 13.78L3.08 9.66L1.29 2.80L3.14 2.80L3.68 5.61L4.15 8.24L5.54 5.61L7.08 2.80L9.00 2.80L4.78 9.66L4.03 13.78L2.34 13.78ZM10.87 13.96L10.87 13.96Q9.59 13.96 8.88 13.21L8.88 13.21L8.88 13.21Q8.16 12.46 8.16 10.96L8.16 10.96L8.16 10.96Q8.16 10.34 8.29 9.62L8.29 9.62L8.29 9.62Q8.66 7.53 9.67 6.50L9.67 6.50L9.67 6.50Q10.68 5.48 12.16 5.48L12.16 5.48L12.16 5.48Q13.44 5.48 14.15 6.22L14.15 6.22L14.15 6.22Q14.87 6.97 14.87 8.47L14.87 8.47L14.87 8.47Q14.87 9.07 14.73 9.85L14.73 9.85L14.73 9.85Q14.37 11.92 13.35 12.94L13.35 12.94L13.35 12.94Q12.34 13.96 10.87 13.96L10.87 13.96ZM10.89 12.63L10.89 12.63Q11.74 12.63 12.32 11.92L12.32 11.92L12.32 11.92Q12.90 11.22 13.18 9.61L13.18 9.61L13.18 9.61Q13.31 8.87 13.31 8.33L13.31 8.33L13.31 8.33Q13.31 7.50 13.01 7.15L13.01 7.15L13.01 7.15Q12.71 6.79 12.12 6.79L12.12 6.79L12.12 6.79Q11.30 6.79 10.73 7.50L10.73 7.50L10.73 7.50Q10.15 8.20 9.86 9.84L9.86 9.84L9.86 9.84Q9.73 10.56 9.73 11.09L9.73 11.09L9.73 11.09Q9.73 11.92 10.02 12.27L10.02 12.27L10.02 12.27Q10.32 12.63 10.89 12.63L10.89 12.63ZM17.50 13.94L17.50 13.94Q16.93 13.94 16.51 13.68L16.51 13.68L16.51 13.68Q16.08 13.43 15.86 12.95L15.86 12.95L15.86 12.95Q15.63 12.48 15.63 11.84L15.63 11.84L15.63 11.84Q15.63 11.48 15.70 11.12L15.70 11.12L16.66 5.63L18.31 5.63L17.36 11.07L17.36 11.07Q17.29 11.41 17.29 11.68L17.29 11.68L17.29 11.68Q17.29 12.58 18.09 12.58L18.09 12.58L18.09 12.58Q18.57 12.58 18.98 12.31L18.98 12.31L18.98 12.31Q19.39 12.04 19.67 11.57L19.67 11.57L19.67 11.57Q19.95 11.09 20.06 10.47L20.06 10.47L20.91 5.63L22.57 5.63L21.14 13.78L19.56 13.78L19.74 12.56L19.66 12.56L19.66 12.56Q19.24 13.25 18.71 13.59L18.71 13.59L18.71 13.59Q18.18 13.94 17.50 13.94L17.50 13.94ZM24.58 13.78L26.26 4.29L23.86 4.29L24.12 2.80L30.61 2.80L30.35 4.29L27.97 4.29L26.29 13.78L24.58 13.78ZM31.85 13.94L31.85 13.94Q31.27 13.94 30.85 13.68L30.85 13.68L30.85 13.68Q30.43 13.43 30.20 12.95L30.20 12.95L30.20 12.95Q29.98 12.48 29.98 11.84L29.98 11.84L29.98 11.84Q29.98 11.48 30.04 11.12L30.04 11.12L31.01 5.63L32.66 5.63L31.71 11.07L31.71 11.07Q31.64 11.41 31.64 11.68L31.64 11.68L31.64 11.68Q31.64 12.58 32.44 12.58L32.44 12.58L32.44 12.58Q32.92 12.58 33.33 12.31L33.33 12.31L33.33 12.31Q33.74 12.04 34.02 11.57L34.02 11.57L34.02 11.57Q34.30 11.09 34.41 10.47L34.41 10.47L35.26 5.63L36.92 5.63L35.49 13.78L33.91 13.78L34.09 12.56L34.01 12.56L34.01 12.56Q33.58 13.25 33.06 13.59L33.06 13.59L33.06 13.59Q32.53 13.94 31.85 13.94L31.85 13.94ZM42.43 5.48L42.43 5.48Q43.52 5.48 44.12 6.21L44.12 6.21L44.12 6.21Q44.72 6.95 44.72 8.36L44.72 8.36L44.72 8.36Q44.72 9.01 44.58 9.82L44.58 9.82L44.58 9.82Q44.35 11.13 43.86 12.06L43.86 12.06L43.86 12.06Q43.37 12.99 42.67 13.47L42.67 13.47L42.67 13.47Q41.97 13.96 41.11 13.96L41.11 13.96L41.11 13.96Q40.37 13.96 39.88 13.56L39.88 13.56L39.88 13.56Q39.40 13.17 39.24 12.50L39.24 12.50L39.16 12.50L38.88 13.78L37.32 13.78L39.26 2.80L40.93 2.80L40.22 6.88L40.26 6.88L40.26 6.88Q41.08 5.48 42.43 5.48L42.43 5.48ZM42.94 9.58L42.94 9.58Q43.04 9.06 43.04 8.60L43.04 8.60L43.04 8.60Q43.04 7.76 42.71 7.34L42.71 7.34L42.71 7.34Q42.39 6.92 41.86 6.92L41.86 6.92L41.86 6.92Q41.33 6.92 40.89 7.27L40.89 7.27L40.89 7.27Q40.44 7.62 40.12 8.27L40.12 8.27L40.12 8.27Q39.80 8.93 39.64 9.82L39.64 9.82L39.64 9.82Q39.54 10.41 39.54 10.88L39.54 10.88L39.54 10.88Q39.54 11.68 39.83 12.10L39.83 12.10L39.83 12.10Q40.11 12.53 40.67 12.53L40.67 12.53L40.67 12.53Q41.17 12.53 41.62 12.21L41.62 12.21L41.62 12.21Q42.08 11.89 42.42 11.23L42.42 11.23L42.42 11.23Q42.77 10.57 42.94 9.58L42.94 9.58ZM49.25 5.48L49.25 5.48Q50.59 5.48 51.17 6.22L51.17 6.22L51.17 6.22Q51.75 6.97 51.75 8.21L51.75 8.21L51.75 8.21Q51.75 8.80 51.63 9.53L51.63 9.53L51.63 9.53Q51.56 9.91 51.47 10.22L51.47 10.22L46.98 10.22L46.98 10.22Q46.92 10.58 46.92 10.90L46.92 10.90L46.92 10.90Q46.92 11.67 47.25 12.12L47.25 12.12L47.25 12.12Q47.59 12.57 48.25 12.57L48.25 12.57L48.25 12.57Q48.73 12.57 49.16 12.35L49.16 12.35L49.16 12.35Q49.59 12.13 49.95 11.72L49.95 11.72L50.99 12.41L50.99 12.41Q50.39 13.27 49.69 13.61L49.69 13.61L49.69 13.61Q48.99 13.95 48.15 13.95L48.15 13.95L48.15 13.95Q47.25 13.95 46.62 13.55L46.62 13.55L46.62 13.55Q45.99 13.15 45.67 12.42L45.67 12.42L45.67 12.42Q45.36 11.70 45.36 10.75L45.36 10.75L45.36 10.75Q45.36 10.21 45.46 9.61L45.46 9.61L45.46 9.61Q45.67 8.42 46.14 7.50L46.14 7.50L46.14 7.50Q46.61 6.57 47.39 6.02L47.39 6.02L47.39 6.02Q48.17 5.48 49.25 5.48L49.25 5.48ZM49.25 6.80L49.25 6.80Q48.41 6.80 47.91 7.43L47.91 7.43L47.91 7.43Q47.41 8.07 47.20 9.04L47.20 9.04L50.29 9.04L50.29 9.04Q50.38 8.45 50.38 8.06L50.38 8.06L50.38 8.06Q50.38 7.44 50.12 7.12L50.12 7.12L50.12 7.12Q49.87 6.80 49.25 6.80L49.25 6.80ZM55.46 13.78L57.39 2.80L60.15 2.80L60.47 11.98L64.05 2.80L66.82 2.80L64.89 13.78L63.17 13.78L64.32 7.20L64.96 4.24L64.90 4.24L60.99 13.78L59.38 13.78L58.83 4.24L58.75 4.24L58.35 7.18L57.18 13.78L55.46 13.78ZM69.77 13.96L69.77 13.96Q68.50 13.96 67.78 13.21L67.78 13.21L67.78 13.21Q67.07 12.46 67.07 10.96L67.07 10.96L67.07 10.96Q67.07 10.34 67.20 9.62L67.20 9.62L67.20 9.62Q67.57 7.53 68.58 6.50L68.58 6.50L68.58 6.50Q69.59 5.48 71.07 5.48L71.07 5.48L71.07 5.48Q72.34 5.48 73.06 6.22L73.06 6.22L73.06 6.22Q73.77 6.97 73.77 8.47L73.77 8.47L73.77 8.47Q73.77 9.07 73.64 9.85L73.64 9.85L73.64 9.85Q73.27 11.92 72.26 12.94L72.26 12.94L72.26 12.94Q71.24 13.96 69.77 13.96L69.77 13.96ZM69.79 12.63L69.79 12.63Q70.64 12.63 71.22 11.92L71.22 11.92L71.22 11.92Q71.80 11.22 72.08 9.61L72.08 9.61L72.08 9.61Q72.21 8.87 72.21 8.33L72.21 8.33L72.21 8.33Q72.21 7.50 71.91 7.15L71.91 7.15L71.91 7.15Q71.61 6.79 71.03 6.79L71.03 6.79L71.03 6.79Q70.21 6.79 69.63 7.50L69.63 7.50L69.63 7.50Q69.06 8.20 68.76 9.84L68.76 9.84L68.76 9.84Q68.63 10.56 68.63 11.09L68.63 11.09L68.63 11.09Q68.63 11.92 68.93 12.27L68.93 12.27L68.93 12.27Q69.23 12.63 69.79 12.63L69.79 12.63ZM74.28 13.78L75.71 5.63L77.29 5.63L77.11 6.85L77.20 6.85L77.20 6.85Q77.61 6.18 78.14 5.83L78.14 5.83L78.14 5.83Q78.67 5.48 79.32 5.48L79.32 5.48L79.32 5.48Q79.92 5.48 80.35 5.73L80.35 5.73L80.35 5.73Q80.77 5.99 81.00 6.46L81.00 6.46L81.00 6.46Q81.23 6.93 81.23 7.57L81.23 7.57L81.23 7.57Q81.23 7.93 81.16 8.29L81.16 8.29L80.20 13.78L78.54 13.78L79.50 8.35L79.50 8.35Q79.56 8.00 79.56 7.74L79.56 7.74L79.56 7.74Q79.56 7.25 79.35 7.04L79.35 7.04L79.35 7.04Q79.15 6.84 78.73 6.84L78.73 6.84L78.73 6.84Q78.27 6.84 77.87 7.10L77.87 7.10L77.87 7.10Q77.47 7.37 77.19 7.85L77.19 7.85L77.19 7.85Q76.90 8.33 76.80 8.95L76.80 8.95L75.95 13.78L74.28 13.78ZM85.89 5.48L85.89 5.48Q87.23 5.48 87.81 6.22L87.81 6.22L87.81 6.22Q88.39 6.97 88.39 8.21L88.39 8.21L88.39 8.21Q88.39 8.80 88.27 9.53L88.27 9.53L88.27 9.53Q88.20 9.91 88.11 10.22L88.11 10.22L83.62 10.22L83.62 10.22Q83.56 10.58 83.56 10.90L83.56 10.90L83.56 10.90Q83.56 11.67 83.89 12.12L83.89 12.12L83.89 12.12Q84.23 12.57 84.90 12.57L84.90 12.57L84.90 12.57Q85.37 12.57 85.80 12.35L85.80 12.35L85.80 12.35Q86.23 12.13 86.59 11.72L86.59 11.72L87.63 12.41L87.63 12.41Q87.04 13.27 86.33 13.61L86.33 13.61L86.33 13.61Q85.63 13.95 84.79 13.95L84.79 13.95L84.79 13.95Q83.89 13.95 83.26 13.55L83.26 13.55L83.26 13.55Q82.63 13.15 82.31 12.42L82.31 12.42L82.31 12.42Q82.00 11.70 82.00 10.75L82.00 10.75L82.00 10.75Q82.00 10.21 82.10 9.61L82.10 9.61L82.10 9.61Q82.31 8.42 82.78 7.50L82.78 7.50L82.78 7.50Q83.25 6.57 84.03 6.02L84.03 6.02L84.03 6.02Q84.81 5.48 85.89 5.48L85.89 5.48ZM85.89 6.80L85.89 6.80Q85.05 6.80 84.55 7.43L84.55 7.43L84.55 7.43Q84.05 8.07 83.84 9.04L83.84 9.04L86.93 9.04L86.93 9.04Q87.02 8.45 87.02 8.06L87.02 8.06L87.02 8.06Q87.02 7.44 86.77 7.12L86.77 7.12L86.77 7.12Q86.51 6.80 85.89 6.80L85.89 6.80ZM90.96 13.78L90.96 13.78Q90.13 13.78 89.73 13.39L89.73 13.39L89.73 13.39Q89.33 13.00 89.33 12.22L89.33 12.22L89.33 12.22Q89.33 11.83 89.41 11.43L89.41 11.43L90.23 6.79L89.30 6.79L89.51 5.63L90.51 5.63L91.16 3.76L92.41 3.76L92.08 5.63L93.67 5.63L93.47 6.79L91.88 6.79L91.11 11.16L91.11 11.16Q91.03 11.60 91.03 11.85L91.03 11.85L91.03 11.85Q91.03 12.20 91.20 12.33L91.20 12.33L91.20 12.33Q91.37 12.46 91.78 12.46L91.78 12.46L92.38 12.46L92.15 13.78L90.96 13.78ZM95.05 4.44L95.34 2.80L97.00 2.80L96.71 4.44L95.05 4.44ZM93.39 13.78L94.83 5.63L96.50 5.63L95.07 13.78L93.39 13.78ZM102.89 5.63L102.68 6.93L98.41 12.49L101.66 12.49L101.43 13.78L96.28 13.78L96.48 12.58L100.89 6.91L97.58 6.91L97.80 5.63L102.89 5.63ZM106.43 5.48L106.43 5.48Q107.59 5.48 108.26 6.01L108.26 6.01L108.26 6.01Q108.94 6.54 108.94 7.56L108.94 7.56L108.94 7.56Q108.94 7.88 108.88 8.18L108.88 8.18L107.89 13.78L106.47 13.78L106.61 12.56L106.51 12.56L106.51 12.56Q106.23 13.04 105.84 13.36L105.84 13.36L105.84 13.36Q105.46 13.67 105.05 13.82L105.05 13.82L105.05 13.82Q104.64 13.96 104.28 13.96L104.28 13.96L104.28 13.96Q103.70 13.96 103.28 13.75L103.28 13.75L103.28 13.75Q102.86 13.54 102.64 13.16L102.64 13.16L102.64 13.16Q102.42 12.77 102.42 12.26L102.42 12.26L102.42 12.26Q102.42 12.04 102.46 11.81L102.46 11.81L102.46 11.81Q102.59 11.06 102.98 10.51L102.98 10.51L102.98 10.51Q103.38 9.97 104.06 9.53L104.06 9.53L104.06 9.53Q105.31 8.76 107.27 8.48L107.27 8.48L107.33 8.17L107.33 8.17Q107.41 7.83 107.41 7.59L107.41 7.59L107.41 7.59Q107.41 7.15 107.17 6.96L107.17 6.96L107.17 6.96Q106.93 6.76 106.42 6.76L106.42 6.76L106.42 6.76Q105.23 6.76 104.50 8.02L104.50 8.02L103.35 7.31L103.35 7.31Q103.87 6.37 104.65 5.92L104.65 5.92L104.65 5.92Q105.44 5.48 106.43 5.48L106.43 5.48ZM104.77 12.67L104.77 12.67Q105.35 12.67 105.85 12.28L105.85 12.28L105.85 12.28Q106.36 11.90 106.76 11.30L106.76 11.30L107.05 9.67L107.05 9.67Q106.48 9.74 105.97 9.92L105.97 9.92L105.97 9.92Q105.46 10.10 105.07 10.37L105.07 10.37L105.07 10.37Q104.67 10.62 104.40 10.98L104.40 10.98L104.40 10.98Q104.14 11.34 104.07 11.76L104.07 11.76L104.07 11.76Q104.05 11.87 104.05 11.97L104.05 11.97L104.05 11.97Q104.05 12.30 104.25 12.48L104.25 12.48L104.25 12.48Q104.45 12.67 104.77 12.67L104.77 12.67ZM111.69 13.78L111.69 13.78Q110.86 13.78 110.46 13.39L110.46 13.39L110.46 13.39Q110.07 13.00 110.07 12.22L110.07 12.22L110.07 12.22Q110.07 11.83 110.14 11.43L110.14 11.43L110.96 6.79L110.04 6.79L110.24 5.63L111.25 5.63L111.89 3.76L113.14 3.76L112.81 5.63L114.41 5.63L114.20 6.79L112.61 6.79L111.84 11.16L111.84 11.16Q111.77 11.60 111.77 11.85L111.77 11.85L111.77 11.85Q111.77 12.20 111.94 12.33L111.94 12.33L111.94 12.33Q112.10 12.46 112.51 12.46L112.51 12.46L113.11 12.46L112.88 13.78L111.69 13.78ZM115.79 4.44L116.07 2.80L117.74 2.80L117.45 4.44L115.79 4.44ZM114.13 13.78L115.56 5.63L117.24 5.63L115.80 13.78L114.13 13.78ZM120.44 13.96L120.44 13.96Q119.16 13.96 118.45 13.21L118.45 13.21L118.45 13.21Q117.74 12.46 117.74 10.96L117.74 10.96L117.74 10.96Q117.74 10.34 117.87 9.62L117.87 9.62L117.87 9.62Q118.23 7.53 119.25 6.50L119.25 6.50L119.25 6.50Q120.26 5.48 121.73 5.48L121.73 5.48L121.73 5.48Q123.01 5.48 123.73 6.22L123.73 6.22L123.73 6.22Q124.44 6.97 124.44 8.47L124.44 8.47L124.44 8.47Q124.44 9.07 124.30 9.85L124.30 9.85L124.30 9.85Q123.94 11.92 122.93 12.94L122.93 12.94L122.93 12.94Q121.91 13.96 120.44 13.96L120.44 13.96ZM120.46 12.63L120.46 12.63Q121.31 12.63 121.89 11.92L121.89 11.92L121.89 11.92Q122.47 11.22 122.75 9.61L122.75 9.61L122.75 9.61Q122.88 8.87 122.88 8.33L122.88 8.33L122.88 8.33Q122.88 7.50 122.58 7.15L122.58 7.15L122.58 7.15Q122.28 6.79 121.69 6.79L121.69 6.79L121.69 6.79Q120.87 6.79 120.30 7.50L120.30 7.50L120.30 7.50Q119.72 8.20 119.43 9.84L119.43 9.84L119.43 9.84Q119.30 10.56 119.30 11.09L119.30 11.09L119.30 11.09Q119.30 11.92 119.60 12.27L119.60 12.27L119.60 12.27Q119.90 12.63 120.46 12.63L120.46 12.63ZM124.95 13.78L126.38 5.63L127.96 5.63L127.78 6.85L127.87 6.85L127.87 6.85Q128.28 6.18 128.81 5.83L128.81 5.83L128.81 5.83Q129.34 5.48 129.99 5.48L129.99 5.48L129.99 5.48Q130.59 5.48 131.01 5.73L131.01 5.73L131.01 5.73Q131.44 5.99 131.67 6.46L131.67 6.46L131.67 6.46Q131.90 6.93 131.90 7.57L131.90 7.57L131.90 7.57Q131.90 7.93 131.83 8.29L131.83 8.29L130.87 13.78L129.21 13.78L130.17 8.35L130.17 8.35Q130.23 8.00 130.23 7.74L130.23 7.74L130.23 7.74Q130.23 7.25 130.02 7.04L130.02 7.04L130.02 7.04Q129.81 6.84 129.40 6.84L129.40 6.84L129.40 6.84Q128.94 6.84 128.54 7.10L128.54 7.10L128.54 7.10Q128.14 7.37 127.86 7.85L127.86 7.85L127.86 7.85Q127.57 8.33 127.47 8.95L127.47 8.95L126.62 13.78L124.95 13.78ZM140.93 13.78L140.82 11.52L137.55 11.52L136.63 13.78L134.85 13.78L139.58 2.80L141.81 2.80L142.67 13.78L140.93 13.78ZM138.11 10.12L140.75 10.12L140.51 4.99L140.53 4.12L140.49 4.12L140.20 4.99L138.11 10.12ZM146.34 13.95L146.34 13.95Q145.53 13.95 144.90 13.65L144.90 13.65L144.90 13.65Q144.27 13.35 143.89 12.78L143.89 12.78L143.89 12.78Q143.51 12.21 143.42 11.42L143.42 11.42L144.76 10.98L144.76 10.98Q144.78 11.50 145.00 11.89L145.00 11.89L145.00 11.89Q145.22 12.27 145.55 12.47L145.55 12.47L145.55 12.47Q145.89 12.67 146.25 12.67L146.25 12.67L146.25 12.67Q146.77 12.67 147.15 12.36L147.15 12.36L147.15 12.36Q147.53 12.04 147.61 11.52L147.61 11.52L147.61 11.52Q147.62 11.40 147.62 11.35L147.62 11.35L147.62 11.35Q147.62 11.06 147.48 10.85L147.48 10.85L147.48 10.85Q147.33 10.64 147.11 10.50L147.11 10.50L147.11 10.50Q146.88 10.36 146.47 10.15L146.47 10.15L146.47 10.15Q146.40 10.11 146.33 10.08L146.33 10.08L146.33 10.08Q146.27 10.04 146.21 10.01L146.21 10.01L146.21 10.01Q145.67 9.76 145.33 9.54L145.33 9.54L145.33 9.54Q144.98 9.31 144.75 8.95L144.75 8.95L144.75 8.95Q144.53 8.59 144.53 8.07L144.53 8.07L144.53 8.07Q144.53 7.92 144.55 7.76L144.55 7.76L144.55 7.76Q144.63 7.01 145.07 6.50L145.07 6.50L145.07 6.50Q145.50 5.98 146.14 5.73L146.14 5.73L146.14 5.73Q146.77 5.47 147.45 5.47L147.45 5.47L147.45 5.47Q148.06 5.47 148.58 5.67L148.58 5.67L148.58 5.67Q149.10 5.87 149.44 6.32L149.44 6.32L149.44 6.32Q149.79 6.77 149.84 7.50L149.84 7.50L148.59 7.76L148.59 7.76Q148.55 7.17 148.24 6.90L148.24 6.90L148.24 6.90Q147.93 6.64 147.47 6.64L147.47 6.64L147.47 6.64Q146.97 6.64 146.57 6.91L146.57 6.91L146.57 6.91Q146.17 7.19 146.09 7.74L146.09 7.74L146.09 7.74Q146.08 7.85 146.08 7.90L146.08 7.90L146.08 7.90Q146.08 8.18 146.23 8.39L146.23 8.39L146.23 8.39Q146.39 8.59 146.63 8.74L146.63 8.74L146.63 8.74Q146.87 8.88 147.29 9.08L147.29 9.08L147.49 9.18L147.49 9.18Q148.04 9.43 148.41 9.68L148.41 9.68L148.41 9.68Q148.78 9.94 149.01 10.33L149.01 10.33L149.01 10.33Q149.24 10.71 149.24 11.26L149.24 11.26L149.24 11.26Q149.24 11.42 149.22 11.60L149.22 11.60L149.22 11.60Q149.15 12.30 148.75 12.83L148.75 12.83L148.75 12.83Q148.35 13.36 147.72 13.65L147.72 13.65L147.72 13.65Q147.10 13.95 146.34 13.95L146.34 13.95ZM152.63 13.95L152.63 13.95Q151.82 13.95 151.19 13.65L151.19 13.65L151.19 13.65Q150.56 13.35 150.18 12.78L150.18 12.78L150.18 12.78Q149.80 12.21 149.71 11.42L149.71 11.42L151.05 10.98L151.05 10.98Q151.07 11.50 151.29 11.89L151.29 11.89L151.29 11.89Q151.50 12.27 151.84 12.47L151.84 12.47L151.84 12.47Q152.18 12.67 152.54 12.67L152.54 12.67L152.54 12.67Q153.06 12.67 153.44 12.36L153.44 12.36L153.44 12.36Q153.82 12.04 153.90 11.52L153.90 11.52L153.90 11.52Q153.91 11.40 153.91 11.35L153.91 11.35L153.91 11.35Q153.91 11.06 153.76 10.85L153.76 10.85L153.76 10.85Q153.62 10.64 153.40 10.50L153.40 10.50L153.40 10.50Q153.17 10.36 152.76 10.15L152.76 10.15L152.76 10.15Q152.69 10.11 152.62 10.08L152.62 10.08L152.62 10.08Q152.56 10.04 152.50 10.01L152.50 10.01L152.50 10.01Q151.96 9.76 151.62 9.54L151.62 9.54L151.62 9.54Q151.27 9.31 151.04 8.95L151.04 8.95L151.04 8.95Q150.81 8.59 150.81 8.07L150.81 8.07L150.81 8.07Q150.81 7.92 150.83 7.76L150.83 7.76L150.83 7.76Q150.92 7.01 151.36 6.50L151.36 6.50L151.36 6.50Q151.79 5.98 152.42 5.73L152.42 5.73L152.42 5.73Q153.06 5.47 153.74 5.47L153.74 5.47L153.74 5.47Q154.35 5.47 154.87 5.67L154.87 5.67L154.87 5.67Q155.39 5.87 155.73 6.32L155.73 6.32L155.73 6.32Q156.08 6.77 156.13 7.50L156.13 7.50L154.88 7.76L154.88 7.76Q154.84 7.17 154.53 6.90L154.53 6.90L154.53 6.90Q154.22 6.64 153.76 6.64L153.76 6.64L153.76 6.64Q153.26 6.64 152.86 6.91L152.86 6.91L152.86 6.91Q152.46 7.19 152.38 7.74L152.38 7.74L152.38 7.74Q152.37 7.85 152.37 7.90L152.37 7.90L152.37 7.90Q152.37 8.18 152.52 8.39L152.52 8.39L152.52 8.39Q152.68 8.59 152.92 8.74L152.92 8.74L152.92 8.74Q153.16 8.88 153.58 9.08L153.58 9.08L153.77 9.18L153.77 9.18Q154.33 9.43 154.70 9.68L154.70 9.68L154.70 9.68Q155.07 9.94 155.30 10.33L155.30 10.33L155.30 10.33Q155.53 10.71 155.53 11.26L155.53 11.26L155.53 11.26Q155.53 11.42 155.51 11.60L155.51 11.60L155.51 11.60Q155.44 12.30 155.04 12.83L155.04 12.83L155.04 12.83Q154.64 13.36 154.01 13.65L154.01 13.65L154.01 13.65Q153.38 13.95 152.63 13.95L152.63 13.95ZM158.02 4.44L158.31 2.80L159.97 2.80L159.68 4.44L158.02 4.44ZM156.36 13.78L157.79 5.63L159.47 5.63L158.03 13.78L156.36 13.78ZM161.98 13.78L161.98 13.78Q161.14 13.78 160.75 13.39L160.75 13.39L160.75 13.39Q160.35 13.00 160.35 12.22L160.35 12.22L160.35 12.22Q160.35 11.83 160.43 11.43L160.43 11.43L161.25 6.79L160.32 6.79L160.53 5.63L161.53 5.63L162.18 3.76L163.43 3.76L163.10 5.63L164.69 5.63L164.49 6.79L162.89 6.79L162.13 11.16L162.13 11.16Q162.05 11.60 162.05 11.85L162.05 11.85L162.05 11.85Q162.05 12.20 162.22 12.33L162.22 12.33L162.22 12.33Q162.39 12.46 162.80 12.46L162.80 12.46L163.40 12.46L163.17 13.78L161.98 13.78ZM168.13 5.48L168.13 5.48Q169.29 5.48 169.97 6.01L169.97 6.01L169.97 6.01Q170.64 6.54 170.64 7.56L170.64 7.56L170.64 7.56Q170.64 7.88 170.58 8.18L170.58 8.18L169.59 13.78L168.17 13.78L168.31 12.56L168.21 12.56L168.21 12.56Q167.93 13.04 167.55 13.36L167.55 13.36L167.55 13.36Q167.16 13.67 166.75 13.82L166.75 13.82L166.75 13.82Q166.34 13.96 165.98 13.96L165.98 13.96L165.98 13.96Q165.40 13.96 164.98 13.75L164.98 13.75L164.98 13.75Q164.56 13.54 164.34 13.16L164.34 13.16L164.34 13.16Q164.12 12.77 164.12 12.26L164.12 12.26L164.12 12.26Q164.12 12.04 164.16 11.81L164.16 11.81L164.16 11.81Q164.29 11.06 164.68 10.51L164.68 10.51L164.68 10.51Q165.08 9.97 165.76 9.53L165.76 9.53L165.76 9.53Q167.02 8.76 168.97 8.48L168.97 8.48L169.03 8.17L169.03 8.17Q169.11 7.83 169.11 7.59L169.11 7.59L169.11 7.59Q169.11 7.15 168.87 6.96L168.87 6.96L168.87 6.96Q168.63 6.76 168.12 6.76L168.12 6.76L168.12 6.76Q166.93 6.76 166.20 8.02L166.20 8.02L165.05 7.31L165.05 7.31Q165.57 6.37 166.35 5.92L166.35 5.92L166.35 5.92Q167.14 5.48 168.13 5.48L168.13 5.48ZM166.48 12.67L166.48 12.67Q167.05 12.67 167.56 12.28L167.56 12.28L167.56 12.28Q168.06 11.90 168.46 11.30L168.46 11.30L168.75 9.67L168.75 9.67Q168.18 9.74 167.67 9.92L167.67 9.92L167.67 9.92Q167.16 10.10 166.77 10.37L166.77 10.37L166.77 10.37Q166.37 10.62 166.10 10.98L166.10 10.98L166.10 10.98Q165.84 11.34 165.77 11.76L165.77 11.76L165.77 11.76Q165.75 11.87 165.75 11.97L165.75 11.97L165.75 11.97Q165.75 12.30 165.95 12.48L165.95 12.48L165.95 12.48Q166.15 12.67 166.48 12.67L166.48 12.67ZM171.27 13.78L172.71 5.63L174.29 5.63L174.10 6.85L174.19 6.85L174.19 6.85Q174.60 6.18 175.14 5.83L175.14 5.83L175.14 5.83Q175.67 5.48 176.32 5.48L176.32 5.48L176.32 5.48Q176.91 5.48 177.34 5.73L177.34 5.73L177.34 5.73Q177.77 5.99 178.00 6.46L178.00 6.46L178.00 6.46Q178.23 6.93 178.23 7.57L178.23 7.57L178.23 7.57Q178.23 7.93 178.16 8.29L178.16 8.29L177.19 13.78L175.53 13.78L176.50 8.35L176.50 8.35Q176.56 8.00 176.56 7.74L176.56 7.74L176.56 7.74Q176.56 7.25 176.35 7.04L176.35 7.04L176.35 7.04Q176.14 6.84 175.72 6.84L175.72 6.84L175.72 6.84Q175.27 6.84 174.87 7.10L174.87 7.10L174.87 7.10Q174.47 7.37 174.18 7.85L174.18 7.85L174.18 7.85Q173.90 8.33 173.80 8.95L173.80 8.95L172.94 13.78L171.27 13.78ZM181.00 13.78L181.00 13.78Q180.16 13.78 179.76 13.39L179.76 13.39L179.76 13.39Q179.37 13.00 179.37 12.22L179.37 12.22L179.37 12.22Q179.37 11.83 179.44 11.43L179.44 11.43L180.26 6.79L179.34 6.79L179.55 5.63L180.55 5.63L181.19 3.76L182.44 3.76L182.12 5.63L183.71 5.63L183.50 6.79L181.91 6.79L181.15 11.16L181.15 11.16Q181.07 11.60 181.07 11.85L181.07 11.85L181.07 11.85Q181.07 12.20 181.24 12.33L181.24 12.33L181.24 12.33Q181.41 12.46 181.82 12.46L181.82 12.46L182.42 12.46L182.18 13.78L181.00 13.78Z"></path></g><!----><g data-v-423bf9ae="" id="64cfb8e1-2e35-4b7b-a969-d5a8f90b699a" transform="matrix(2.8125,0,0,2.8125,445.8299865722656,0)" stroke="none" fill="white"><path d="M2.83 18.247l26.34-9.124L2.83 0zM29.17 32V13.753L2.83 22.877z"></path></g><!----><g data-v-423bf9ae="" id="2ccd6263-13ae-44ce-8914-89d20f0bec66" fill="white" transform="matrix(3.635469646980524,0,0,3.635469646980524,120.2396215169278,179.3040758144597)"><path d="M2.18 2.21L1.13 2.21L1.13 11.48L2.18 11.48ZM11.23 4.48L11.23 11.48L12.28 11.48L12.28 7.45C12.28 6.19 13.23 5.32 14.39 5.32C15.54 5.32 16.35 6.16 16.35 7.43L16.35 11.48L17.40 11.48L17.40 7.41C17.40 5.42 16.04 4.37 14.60 4.37C13.47 4.37 12.78 4.90 12.28 5.57L12.28 4.48ZM42.24 11.48L42.24 4.48L41.19 4.48L41.19 8.51C41.19 9.77 40.24 10.64 39.07 10.64C37.93 10.64 37.11 9.80 37.11 8.53L37.11 4.48L36.06 4.48L36.06 8.55C36.06 10.54 37.42 11.59 38.86 11.59C40.00 11.59 40.68 11.06 41.19 10.39L41.19 11.48ZM53.49 4.37C51.69 4.37 50.75 5.11 50.75 6.37C50.75 8.93 55.41 7.84 55.41 9.59C55.41 10.54 54.19 10.70 53.62 10.70C52.26 10.70 51.73 10.00 51.66 9.28L50.57 9.28C50.64 10.51 51.66 11.59 53.61 11.59C55.34 11.59 56.46 10.85 56.46 9.49C56.46 6.86 51.80 7.95 51.80 6.27C51.80 5.59 52.37 5.26 53.47 5.26C54.64 5.26 55.09 5.75 55.17 6.36L56.24 6.36C56.11 5.33 55.34 4.37 53.49 4.37ZM64.05 13.34L65.00 13.34L66.23 10.36L64.86 10.36ZM90.87 4.48L89.73 4.48L87.43 10.22L85.18 4.48L84.01 4.48L86.87 11.38L85.60 14.25L86.73 14.25ZM101.75 4.37C99.61 4.37 98.28 5.98 98.28 7.98C98.28 9.98 99.61 11.59 101.75 11.59C103.89 11.59 105.22 9.98 105.22 7.98C105.22 5.98 103.89 4.37 101.75 4.37ZM101.75 10.64C100.20 10.64 99.33 9.42 99.33 7.98C99.33 6.54 100.20 5.32 101.75 5.32C103.31 5.32 104.17 6.54 104.17 7.98C104.17 9.42 103.31 10.64 101.75 10.64ZM119.71 11.48L119.71 4.48L118.66 4.48L118.66 8.51C118.66 9.77 117.71 10.64 116.55 10.64C115.40 10.64 114.59 9.80 114.59 8.53L114.59 4.48L113.54 4.48L113.54 8.55C113.54 10.54 114.90 11.59 116.34 11.59C117.47 11.59 118.16 11.06 118.66 10.39L118.66 11.48ZM140.32 11.48L140.32 5.40L141.93 5.40L141.93 4.48L140.32 4.48L140.32 1.97L139.27 1.97L139.27 4.48L137.84 4.48L137.84 5.40L139.27 5.40L139.27 11.48ZM153.71 4.37C151.97 4.37 151.27 5.73 151.13 6.20L151.13 4.48L150.08 4.48L150.08 11.48L151.13 11.48L151.13 8.40C151.13 6.86 152.08 5.42 153.65 5.42L153.78 5.42L153.78 4.37ZM168.01 11.48L168.01 4.48L166.96 4.48L166.96 8.51C166.96 9.77 166.01 10.64 164.85 10.64C163.70 10.64 162.89 9.80 162.89 8.53L162.89 4.48L161.84 4.48L161.84 8.55C161.84 10.54 163.20 11.59 164.64 11.59C165.77 11.59 166.46 11.06 166.96 10.39L166.96 11.48ZM179.27 4.37C177.46 4.37 176.53 5.11 176.53 6.37C176.53 8.93 181.19 7.84 181.19 9.59C181.19 10.54 179.97 10.70 179.40 10.70C178.04 10.70 177.51 10.00 177.44 9.28L176.34 9.28C176.41 10.51 177.44 11.59 179.38 11.59C181.12 11.59 182.24 10.85 182.24 9.49C182.24 6.86 177.58 7.95 177.58 6.27C177.58 5.59 178.15 5.26 179.24 5.26C180.42 5.26 180.87 5.75 180.95 6.36L182.01 6.36C181.89 5.33 181.12 4.37 179.27 4.37ZM192.39 11.48L192.39 5.40L194.00 5.40L194.00 4.48L192.39 4.48L192.39 1.97L191.34 1.97L191.34 4.48L189.91 4.48L189.91 5.40L191.34 5.40L191.34 11.48ZM202.10 10.05L202.10 11.48L203.46 11.48L203.46 10.05ZM203.17 8.92L203.43 2.21L202.13 2.21L202.40 8.92Z"></path></g></svg>